# xmcd
#
# Track frame offsets:
#	151
#	32792
#	80842
#
# Disc length: 1634 seconds
#
# Revision: 0
# Processed by: cddbd v1.5.1PL2 Copyright (c) Steve Scherf et al.
# Submitted via: EasyCDDAExtractor 8.2.3.1
#
DISCID=1f066003
DTITLE=The Code Talkers with Vassar Clements - Magnoliafest - Live Oak, FL 10-
DTITLE=19-01 disc 2
DYEAR=2001
DGENRE=Country
TTITLE0=I Threw The Body In The Lake
TTITLE1=Planet Earth
TTITLE2=Turn On Your Lovelight
EXTD=
EXTT0=
EXTT1=
EXTT2=
PLAYORDER=
